<svg width="384" height="240" viewBox="0 0 384 240" fill="none" xmlns="http://www.w3.org/2000/svg">
<mask id="mask0_104_211" style="mask-type:alpha" maskUnits="userSpaceOnUse" x="0" y="0" width="384" height="240">
<rect x="383.5" y="239.5" width="383" height="239" rx="19.5" transform="rotate(-180 383.5 239.5)" fill="#0F100E" stroke="url(#paint0_linear_104_211)"/>
<mask id="mask1_104_211" style="mask-type:alpha" maskUnits="userSpaceOnUse" x="0" y="14" width="384" height="226">
<rect x="384" y="240" width="384" height="226" rx="20" transform="rotate(-180 384 240)" fill="#7D7BB7"/>
<rect x="383.5" y="239.5" width="383" height="225" rx="19.5" transform="rotate(-180 383.5 239.5)" stroke="url(#paint1_linear_104_211)" stroke-opacity="0.8"/>
</mask>
<g mask="url(#mask1_104_211)">
</g>
</mask>
<g mask="url(#mask0_104_211)">
<g filter="url(#filter0_f_104_211)">
<path d="M417.413 167.024C375.54 229.36 344.734 135.988 266.892 95.5437C189.049 55.0993 93.6473 82.8977 135.521 20.5617C177.394 -41.7743 274.443 -59.5209 352.285 -19.0765C430.127 21.368 459.286 104.688 417.413 167.024Z" fill="url(#paint2_linear_104_211)"/>
</g>
</g>
<defs>
<filter id="filter0_f_104_211" x="5.30554" y="-160.768" width="551.237" height="468.653" filterUnits="userSpaceOnUse" color-interpolation-filters="sRGB">
<feFlood flood-opacity="0" result="BackgroundImageFix"/>
<feBlend mode="normal" in="SourceGraphic" in2="BackgroundImageFix" result="shape"/>
<feGaussianBlur stdDeviation="60" result="effect1_foregroundBlur_104_211"/>
</filter>
<linearGradient id="paint0_linear_104_211" x1="576" y1="240" x2="576" y2="480" gradientUnits="userSpaceOnUse">
<stop stop-color="#7F7EB8"/>
<stop offset="1" stop-color="#7D7BB7"/>
</linearGradient>
<linearGradient id="paint1_linear_104_211" x1="768" y1="232.937" x2="529.914" y2="489.263" gradientUnits="userSpaceOnUse">
<stop stop-color="#7D7BB7"/>
<stop offset="1" stop-color="#7F7EB8"/>
</linearGradient>
<linearGradient id="paint2_linear_104_211" x1="212.5" y1="9.5" x2="288.61" y2="201.361" gradientUnits="userSpaceOnUse">
<stop stop-color="#7D7BB7"/>
<stop offset="1" stop-color="#2E92C3"/>
</linearGradient>
</defs>
</svg>
