<svg version="1.2" xmlns="http://www.w3.org/2000/svg" viewBox="0 0 48 48" width="77" height="77">
	<title>gold-teeth_10747663</title>
	<style>
		.s0 { fill: #000000 } 
	</style>
	<filter id="f0">
		<feFlood flood-color="#307bc4" flood-opacity="1" />
		<feBlend mode="normal" in2="SourceGraphic"/>
		<feComposite in2="SourceAlpha" operator="in" />
	</filter>
	<g id="Folder 1" filter="url(#f0)">
		<path class="s0" d="m11.1 19h5.9v2h-5.1c-0.3 0-0.7 0.2-0.8 0.5-0.2 0.3-0.2 0.7 0 1 1.7 3.2 1.9 6.4 2 9.5 0.1 1.5 0.2 2.9 0.4 4.3 0.3 1.6 1.4 2.9 2.9 3.5 0.7 0.3 1.4 0.2 2-0.1 0.6-0.3 1.1-1 1.3-1.7q0.1-0.6 0.2-1.4c0.6-3 1.7-8.7 4.1-8.7 2.5 0 3.5 5.7 4.1 8.8q0.1 0.7 0.3 1.3c0.1 0.8 0.6 1.4 1.2 1.7q0.5 0.3 1 0.3 0.5 0 1-0.2c1.5-0.6 2.6-2 2.9-3.6 0.3-1.4 0.3-2.8 0.4-4.3 0.1-3 0.2-6.2 2-9.4 0.2-0.3 0.2-0.7 0-1-0.2-0.3-0.5-0.5-0.9-0.5h-5v-2h6c0.4 0 0.7-0.2 0.9-0.5 1.2-2 2-5.1 2.1-7.5 0.1-2.2-0.8-4.5-2.4-6.2-1.7-1.7-3.9-2.7-6.3-2.8-2 0-4.1 0.5-5.8 1.4-0.9 0.5-2.1 0.5-3 0-1.7-0.9-3.8-1.4-5.8-1.4-2.4 0.1-4.6 1.1-6.2 2.8-1.7 1.7-2.5 4-2.5 6.2 0.1 2.4 1 5.4 2.2 7.5 0.2 0.3 0.5 0.5 0.9 0.5zm21.8 12.8c-0.1 1.5-0.1 2.8-0.4 4.1-0.1 0.9-0.8 1.7-1.7 2.1q-0.1 0-0.2 0c-0.1-0.1-0.2-0.2-0.3-0.4q-0.1-0.6-0.2-1.3c-0.8-4.1-2-10.4-6.1-10.4-4.1 0-5.3 6.2-6 10.4q-0.2 0.7-0.3 1.3c0 0.2-0.2 0.3-0.2 0.4q-0.1 0-0.3 0c-0.9-0.4-1.5-1.2-1.7-2.1-0.2-1.2-0.3-2.6-0.4-4-0.1-2.7-0.2-5.7-1.6-8.9h20.9c-1.3 3.1-1.4 6.1-1.5 8.8zm-3.9-10.8h-10v-2h10zm-17.1-14.8c1.3-1.4 3-2.1 4.8-2.2 1.7 0 3.4 0.4 4.8 1.1 1.5 0.9 3.5 0.9 5 0 1.4-0.7 3.1-1.1 4.8-1.1 1.8 0.1 3.5 0.8 4.8 2.2 1.3 1.3 2 3 1.9 4.8 0 1.9-0.7 4.3-1.6 6h-24.7c-0.9-1.7-1.6-4.2-1.7-6 0-1.8 0.7-3.5 1.9-4.8z"/>
		<path class="s0" d="m24 10.2c3.1 0 5.1-1.9 5.2-2 0.4-0.4 0.4-1 0-1.4-0.3-0.4-1-0.4-1.4-0.1 0 0-1.6 1.5-3.8 1.5-2.2 0-3.8-1.4-3.8-1.5-0.4-0.3-1-0.3-1.4 0.1-0.4 0.4-0.4 1 0 1.4 0.1 0.1 2.1 2 5.2 2z"/>
		<path class="s0" d="m43 26h-5c-0.5 0-1 0.4-1 1 0 0.6 0.5 1 1 1h5c0.5 0 1 0.4 1 1v12c0 1.6-1.4 3-3 3h-34c-1.7 0-3-1.4-3-3v-12c0-0.6 0.5-1 1-1h5c0.6 0 1-0.4 1-1 0-0.6-0.4-1-1-1h-5c-1.6 0-3 1.4-3 3v12c0 2.8 2.2 5 5 5h34c2.8 0 5-2.2 5-5v-12c0-1.6-1.4-3-3-3z"/>
		<path class="s0" d="m5.3 5.7q0.3 0.3 0.7 0.3 0.4 0 0.7-0.3c0.4-0.4 0.4-1 0-1.4l-2-2c-0.4-0.4-1-0.4-1.4 0-0.4 0.4-0.4 1 0 1.4 0 0 2 2 2 2z"/>
		<path class="s0" d="m5.3 16.3l-2 2c-0.4 0.4-0.4 1 0 1.4q0.3 0.3 0.7 0.3 0.4 0 0.7-0.3l2-2c0.4-0.4 0.4-1 0-1.4-0.4-0.4-1-0.4-1.4 0z"/>
		<path class="s0" d="m3 12h3c0.5 0 1-0.4 1-1 0-0.6-0.5-1-1-1h-3c-0.5 0-1 0.4-1 1 0 0.6 0.5 1 1 1z"/>
		<path class="s0" d="m42 6q0.4 0 0.7-0.3l2-2c0.4-0.4 0.4-1 0-1.4-0.4-0.4-1-0.4-1.4 0l-2 2c-0.4 0.4-0.4 1 0 1.4q0.3 0.3 0.7 0.3z"/>
		<path class="s0" d="m43.3 19.7q0.3 0.3 0.7 0.3 0.4 0 0.7-0.3c0.4-0.4 0.4-1 0-1.4l-2-2c-0.4-0.4-1-0.4-1.4 0-0.4 0.4-0.4 1 0 1.4l2 2z"/>
		<path class="s0" d="m42 12h3c0.5 0 1-0.4 1-1 0-0.6-0.5-1-1-1h-3c-0.5 0-1 0.4-1 1 0 0.6 0.5 1 1 1z"/>
	</g>
</svg>