<svg version="1.2" xmlns="http://www.w3.org/2000/svg" viewBox="0 0 64 64" width="77" height="77">
	<title>dental-report_17761705</title>
	<style>
		.s0 { fill: #000000 } 
	</style>
	<filter id="f0">
		<feFlood flood-color="#307bc4" flood-opacity="1" />
		<feBlend mode="normal" in2="SourceGraphic"/>
		<feComposite in2="SourceAlpha" operator="in" />
	</filter>
	<g id="Folder 1" filter="url(#f0)">
		<path class="s0" d="m50 3.5h-9q0-0.2-0.1-0.4 0-0.2-0.2-0.3-0.1-0.2-0.3-0.3-0.2 0-0.4 0h-16q-0.2 0-0.4 0-0.2 0.1-0.3 0.3-0.2 0.1-0.2 0.3-0.1 0.2-0.1 0.4h-9q-0.6 0-1.1 0.3-0.6 0.2-1 0.6-0.4 0.4-0.7 1-0.2 0.5-0.2 1.1v52q0 0.6 0.2 1.2 0.3 0.5 0.7 1 0.4 0.4 1 0.6 0.5 0.2 1.1 0.2h36q0.6 0 1.1-0.2 0.6-0.2 1-0.6 0.4-0.5 0.7-1 0.2-0.6 0.2-1.2v-52q0-0.6-0.2-1.1-0.3-0.6-0.7-1-0.4-0.4-1-0.6-0.5-0.3-1.1-0.3zm-25 1h14v3.1q0 0.2-0.1 0.4-0.1 0.2-0.2 0.3-0.1 0.2-0.3 0.2-0.2 0.1-0.4 0.1h-12q-0.2 0-0.4-0.1-0.2 0-0.3-0.2-0.1-0.1-0.2-0.3-0.1-0.2-0.1-0.4zm-12 54.1v-52q0-0.2 0.1-0.4 0.1-0.2 0.2-0.3 0.1-0.2 0.3-0.2 0.2-0.1 0.4-0.1h9v2q0 0.6 0.2 1.2 0.3 0.5 0.7 1 0.4 0.4 1 0.6 0.5 0.2 1.1 0.2h12q0.6 0 1.1-0.2 0.6-0.2 1-0.6 0.4-0.5 0.7-1 0.2-0.6 0.2-1.2v-2h9q0.2 0 0.4 0.1 0.2 0 0.3 0.2 0.1 0.1 0.2 0.3 0.1 0.2 0.1 0.4v45h-7q-0.2 0-0.4 0.1-0.2 0-0.3 0.2-0.1 0.1-0.2 0.3-0.1 0.2-0.1 0.4v7h-29q-0.2 0-0.4-0.1-0.2-0.1-0.3-0.2-0.1-0.2-0.2-0.3-0.1-0.2-0.1-0.4zm36.6-5l-4.6 4.6v-4.6zm0.4 6h-3.6l4.6-4.6v3.6q0 0.2-0.1 0.4 0 0.1-0.2 0.3-0.1 0.1-0.3 0.2-0.2 0.1-0.4 0.1z"/>
		<path class="s0" d="m37.1 41.4q0.3 0.3 0.7 0.3 0.4 0.1 0.8-0.1 0.4-0.2 0.6-0.5 0.2-0.4 0.2-0.8c0-2.9 1-5.5 1.5-5.8 0.6 0.4 1.6 2.9 1.6 5.8q0 0.5 0.2 0.8 0.2 0.3 0.6 0.5 0.3 0.2 0.7 0.1 0.4 0 0.8-0.3c2.2-1.9 3.6-8 3.7-11.8q0.6-0.9 0.9-1.9 0.3-0.9 0.4-1.9 0-1-0.2-2-0.3-1-0.7-1.9-0.3-0.6-0.8-1-0.4-0.5-1-0.8-0.5-0.3-1.2-0.4-0.6-0.1-1.2 0.1l-3.7 1.3c-0.7 0.4-2-0.5-2.6-0.8-3.3-2.1-6.4 1.5-6.3 5.2q0 0.5 0.1 1.1 0.1 0.5 0.2 1 0.2 0.5 0.4 1 0.2 0.5 0.5 1c0.3 3.7 1 9 3.8 11.8zm-1.8-12.2q0-0.1 0-0.2 0-0.1 0-0.2-0.1 0-0.1-0.1-0.1-0.1-0.1-0.1-0.2-0.3-0.4-0.6-0.1-0.2-0.2-0.5-0.1-0.3-0.2-0.6-0.1-0.3-0.1-0.6c-0.4-1.7 0.6-4.7 2.3-4.6 0-0.1 0.3 0.1 0.4 0.1-0.2 3.2 1.7 6.1 4 6.1 2.4 0 4.3-2.9 4.1-6.1q0.1-0.1 0.2-0.1 0.2 0 0.3 0 0.1 0 0.3 0 0.1 0 0.2 0.1c1.8 1 2.1 3.7 1.5 5.5-0.2 0.8-0.8 1.1-0.9 1.9q-0.1 1.2-0.2 2.4-0.2 1.2-0.5 2.4-0.2 1.2-0.6 2.4-0.4 1.2-0.9 2.3c-0.7-8.1-6-8.5-6.9 0q-0.5-1.2-0.9-2.3-0.4-1.2-0.7-2.4-0.2-1.2-0.4-2.4-0.1-1.2-0.2-2.4zm6.4-6.2l1.3-0.5c-0.1 2-1.1 3.4-2.1 3.4-0.8 0-1.8-1.3-2-3.1q0.3 0.2 0.7 0.3 0.3 0.1 0.7 0.1 0.3 0 0.7 0 0.3-0.1 0.7-0.2z"/>
		<path class="s0" d="m46 44.4q0.4 0 0.7-0.3 0.3-0.3 0.3-0.7 0-0.4-0.3-0.7-0.3-0.3-0.7-0.3h-10.1q-0.5 0-0.7 0.3-0.3 0.3-0.3 0.7 0 0.4 0.3 0.7 0.2 0.3 0.7 0.3z"/>
		<path class="s0" d="m30 17h-8q-0.4 0-0.7 0.3-0.3 0.3-0.3 0.7 0 0.4 0.3 0.7 0.3 0.3 0.7 0.3h8q0.4 0 0.7-0.3 0.3-0.3 0.3-0.7 0-0.4-0.3-0.7-0.3-0.3-0.7-0.3z"/>
		<path class="s0" d="m30 27h-8q-0.4 0-0.7 0.3-0.3 0.3-0.3 0.7 0 0.4 0.3 0.7 0.3 0.3 0.7 0.3h8q0.4 0 0.7-0.3 0.3-0.3 0.3-0.7 0-0.4-0.3-0.7-0.3-0.3-0.7-0.3z"/>
		<path class="s0" d="m30 37h-8q-0.4 0-0.7 0.3-0.3 0.3-0.3 0.7 0 0.4 0.3 0.7 0.3 0.3 0.7 0.3h8q0.4 0 0.7-0.3 0.3-0.3 0.3-0.7 0-0.4-0.3-0.7-0.3-0.3-0.7-0.3z"/>
		<path class="s0" d="m30 47h-8q-0.4 0-0.7 0.3-0.3 0.3-0.3 0.7 0 0.4 0.3 0.7 0.3 0.3 0.7 0.3h8q0.4 0 0.7-0.3 0.3-0.3 0.3-0.7 0-0.4-0.3-0.7-0.3-0.3-0.7-0.3z"/>
		<path class="s0" d="m16 20.4q0.1 0.1 0.3 0.2 0.2 0 0.4 0 0.2 0 0.4 0 0.2-0.1 0.3-0.2l3.3-3.3q0.3-0.3 0.3-0.7 0-0.5-0.3-0.7-0.3-0.3-0.7-0.3-0.4 0-0.7 0.2l-2.6 2.6-0.9-0.9q-0.3-0.3-0.7-0.3-0.5 0-0.7 0.3-0.3 0.3-0.3 0.7 0 0.4 0.2 0.7z"/>
		<path class="s0" d="m16 30.4q0.1 0.1 0.3 0.2 0.2 0 0.4 0 0.2 0 0.4 0 0.2-0.1 0.3-0.2l3.3-3.3q0.3-0.3 0.3-0.7 0-0.5-0.3-0.7-0.3-0.3-0.7-0.3-0.4 0-0.7 0.2l-2.6 2.6-0.9-0.9q-0.3-0.3-0.7-0.3-0.5 0-0.7 0.3-0.3 0.3-0.3 0.7 0 0.4 0.2 0.7z"/>
		<path class="s0" d="m16 40.4q0.1 0.1 0.3 0.2 0.2 0 0.4 0 0.2 0 0.4 0 0.2-0.1 0.3-0.2l3.3-3.3q0.3-0.3 0.3-0.7 0-0.5-0.3-0.7-0.3-0.3-0.7-0.3-0.4 0-0.7 0.2l-2.6 2.6-0.9-0.9q-0.3-0.3-0.7-0.3-0.5 0-0.7 0.3-0.3 0.3-0.3 0.7 0 0.4 0.2 0.7z"/>
		<path class="s0" d="m20.7 45.6q-0.1-0.1-0.3-0.2-0.2 0-0.4 0-0.2 0-0.4 0-0.2 0.1-0.3 0.2l-2.6 2.6-0.9-0.9q-0.3-0.3-0.8-0.3-0.4 0-0.7 0.3-0.3 0.3-0.3 0.7 0 0.4 0.3 0.7l1.7 1.7q0.1 0.1 0.3 0.2 0.2 0 0.4 0 0.2 0 0.4 0 0.2-0.1 0.3-0.2l3.3-3.3q0.1-0.2 0.2-0.4 0.1-0.2 0.1-0.3 0-0.2-0.1-0.4-0.1-0.2-0.2-0.4z"/>
	</g>
</svg>