<svg version="1.2" xmlns="http://www.w3.org/2000/svg" viewBox="0 0 514 513" width="72" height="72">
	<title>implant_1386815</title>
	<style>
		.s0 { fill: #307bc4 } 
	</style>
	<path class="s0" d="m427.2 52.5c-1.9-3.7-6.4-5.2-10.1-3.2-3.7 1.9-5.1 6.4-3.2 10.1 9.8 18.8 11.9 40.5 5.8 60.9-2.4 8.2-23.6 80-24.5 83.6-0.2 0.7-0.9 1.2-1.6 1.2h-177c-4.1 0-7.5 3.4-7.5 7.5 0 4.1 3.4 7.5 7.5 7.5h154.3l-4.2 22.9c-0.1 0.8-0.8 1.3-1.6 1.3h-216.1c-0.7 0-1.4-0.5-1.5-1.3l-4.2-22.9h40.7c4.1 0 7.5-3.4 7.5-7.5 0-4.1-3.4-7.5-7.5-7.5h-63.5c-0.7 0-1.3-0.5-1.5-1.2q0-0.1-0.1-0.2l-24.5-83.4c-7.4-25-2.6-51.4 13-72.4 15.6-20.9 39.6-32.9 65.7-32.9 7.8 0 15.5 1.1 22.9 3.2 40 11.6 82.2 11.6 122.2 0 7.4-2.1 15.1-3.2 22.8-3.2 20.1 0 39.4 7.3 54.4 20.5 3.1 2.8 7.8 2.5 10.6-0.6 2.7-3.1 2.4-7.8-0.7-10.6-17.7-15.7-40.5-24.3-64.3-24.3-9.2 0-18.3 1.3-27 3.8-37.2 10.8-76.6 10.8-113.8 0-8.8-2.5-17.9-3.8-27.1-3.8-30.9 0-59.2 14.2-77.7 39-18.5 24.7-24.1 55.9-15.3 85.6l24.4 83.2c1.9 7.3 8.5 12.3 16 12.3h7.5l4.7 25.6c1.4 7.9 8.3 13.6 16.3 13.6h32.7l5.3 45.7-5.3 1.4c-5.4 1.4-10 4.9-12.8 9.8-2.9 4.9-3.6 10.7-2.2 16.1 2.6 9.5 11.2 15.7 20.5 15.7q2.4 0 4.8-0.5l2.6 23.2-7.1 1.9c-11.3 3-18 14.7-15 26 2.6 9.4 11.1 15.7 20.5 15.7q2.7 0 5.5-0.8l1.1-0.3 2.7 23.2-6.1 1.7c-5.5 1.4-10.1 4.9-12.9 9.8-2.8 4.9-3.6 10.6-2.1 16.1 1.4 5.5 5 10 9.9 12.9 3.2 1.9 6.8 2.8 10.5 2.8q2.8 0 5.5-0.7h0.1l2.1 17.6c1 8.8 8.5 15.4 17.3 15.4h60.9c8.9 0 16.4-6.6 17.4-15.4l5.2-45.2 7.9-2.1c11.3-3 18-14.7 15-26-2.3-8.5-9.5-14.4-17.8-15.5l3.1-26.4 8.4-2.2c11.2-3 18-14.7 14.9-26-2.3-8.7-9.8-14.7-18.3-15.6l3.1-26.1 6-1.6c11.3-3.1 18-14.7 15-26-2.1-7.9-8.5-13.6-16-15.2l1-9.4h32.7c8.1 0 14.9-5.7 16.4-13.6l4.6-25.6h7.5c7.6 0 14.2-5.1 16.1-12.4 0.6-2.6 14.9-51.1 24.4-83.1 7.2-24.2 4.7-49.8-6.9-72.1zm-137.2 442.3c-0.2 1.3-1.2 2.2-2.5 2.2h-60.9c-1.2 0-2.3-0.9-2.4-2.2l-2.3-19.8 72.6-19.4zm28.5-67.6c0.9 3.3-1 6.7-4.3 7.6l-110.9 29.7c-1.6 0.4-3.3 0.2-4.7-0.7-1.4-0.8-2.4-2.1-2.9-3.7-0.4-1.6-0.2-3.3 0.7-4.7 0.8-1.4 2.1-2.5 3.7-2.9l110.9-29.7q0.8-0.2 1.6-0.2c2.7 0 5.2 1.8 5.9 4.6zm-18.6-17l-82.9 22.2-2.7-23.1 88.4-23.7zm27.4-53.2c0.9 3.3-1.1 6.7-4.4 7.6l-128.2 34.3c-3.3 0.9-6.7-1.1-7.6-4.4-0.8-3.2 1.1-6.6 4.4-7.5l128.2-34.4q0.8-0.2 1.6-0.2c2.7 0 5.2 1.8 6 4.6zm5.8-69.3c0.8 3.3-1.1 6.7-4.4 7.5l-45.8 12.3c-4 1.1-6.4 5.2-5.3 9.2 1 4 5.1 6.4 9.1 5.3l24.2-6.5-2.8 24.7-98.7 26.4-2.7-23.1 48.5-13c4-1.1 6.3-5.2 5.3-9.2-1.1-4-5.2-6.4-9.2-5.3l-62.4 16.7c-3.3 0.9-6.7-1.1-7.5-4.4-0.5-1.6-0.3-3.2 0.6-4.7 0.8-1.4 2.1-2.4 3.7-2.9l139.8-37.4c3.3-0.9 6.7 1.1 7.6 4.4zm-16.9-17.5l-114.4 30.7-4.9-41.7h120.6z"/>
	<path class="s0" d="m314 43.8c-37.2 10.8-76.6 10.8-113.8 0-4-1.1-8.2 1.2-9.3 5.1-1.2 4 1.1 8.2 5.1 9.3 20 5.8 40.5 8.7 61.1 8.7 20.5 0 41.1-2.9 61.1-8.7 3.9-1.1 6.2-5.3 5.1-9.3-1.2-3.9-5.3-6.2-9.3-5.1z"/>
</svg>