<svg version="1.2" xmlns="http://www.w3.org/2000/svg" viewBox="0 0 64 64" width="77" height="77">
	<title>molar_2185099</title>
	<style>
		.s0 { fill: #307bc4 } 
	</style>
	<path class="s0" d="m63 33.5h-7.6c2.9-3.3 4.6-7.5 4.6-12 0-9.9-8.1-18-18-18-3.6 0-7 1.1-10 3.1-3-2-6.4-3.1-10-3.1-9.9 0-18 8.1-18 18 0 4.5 1.7 8.7 4.6 12h-7.6c-0.6 0-1 0.5-1 1 0 0.6 0.4 1 1 1h9v24q0 0.1 0 0.2 0.1 0.1 0.1 0.2 0 0.1 0.1 0.2 0.1 0.1 0.1 0.1 0.1 0.1 0.2 0.1 0.1 0.1 0.1 0.1 0.1 0.1 0.2 0.1 0.1 0 0.2 0h8c5.5 0 10-4.5 10-10v-7q0 0 0 0c0-1.7 1.3-3 3-3 1.7 0 3 1.3 3 3q0 0 0 0v7q0 0 0 0c0 5.5 4.5 10 10 10q0 0 0 0 0 0 0 0 0 0 0 0h8q0.1 0 0.2 0 0.1 0 0.2-0.1 0.1 0 0.1 0 0.1-0.1 0.2-0.2 0.1 0 0.1-0.1 0.1-0.1 0.1-0.2 0.1-0.1 0.1-0.2 0-0.1 0-0.2v-24h9c0.6 0 1-0.5 1-1 0-0.6-0.4-1-1-1zm-41-28c3.4 0 6.6 1.1 9.4 3.1 0.4 0.2 0.8 0.2 1.2 0 2.8-2 6-3.1 9.4-3.1 8.8 0 16 7.2 16 16 0 4.7-2.1 9.1-5.6 12.2q-0.1 0-0.1 0 0 0.1-0.1 0.2-0.1 0.1-0.1 0.1 0 0.1 0 0.1-0.1 0.2-0.1 0.4v24h-6v-2h3q0.4 0 0.7-0.3 0.3-0.3 0.3-0.7v-30c0-4.4-3.6-8-8-8q-0.1 0-0.2 0h-19.8c-4.4 0-8 3.6-8 8v30q0 0.4 0.3 0.7 0.3 0.3 0.7 0.3h3v2h-6v-24q0 0 0 0 0-0.1 0-0.2 0-0.1 0-0.2 0 0-0.1 0 0-0.1 0-0.2-0.1 0-0.1 0 0-0.1 0-0.1-0.1 0-0.1 0 0 0 0-0.1c-3.6-3-5.7-7.5-5.7-12.2 0-8.8 7.2-16 16-16zm19 38c0-5-4-9-9-9-5 0-9 4-9 9v6.9q0 0.1 0 0.1c0 1.9-1.3 3.4-3 3.9v-20.9c0-2.8 2.2-5 5-5q0 0 0 0c1.1 0 2 0.9 2 2 0 0.6 0.4 1 1 1 0.6 0 1-0.4 1-1 0-1.2-0.5-2.3-1.4-3 0.9-0.7 1.4-1.8 1.4-3 0-0.5-0.4-1-1-1-0.6 0-1 0.5-1 1 0 1.1-0.9 2-2 2q0 0 0 0 0 0 0 0c-3.9 0-7 3.2-7 7v21h-2v-29q0 0 0 0c0-3.3 2.7-6 6-6h20q0.1 0 0.1 0c3.3 0.1 5.9 2.7 5.9 6v29h-2v-21c0-3.8-3.1-7-7-7q0 0 0 0 0 0 0 0c-1.1 0-2-0.9-2-2 0-0.5-0.5-1-1-1-0.6 0-1 0.5-1 1 0 1.2 0.5 2.3 1.4 3-0.9 0.7-1.4 1.8-1.4 3 0 0.6 0.4 1 1 1 0.5 0 1-0.4 1-1 0-1.1 0.9-2 2-2q0 0 0 0c2.7 0 5 2.2 5 5v20.8c-1.7-0.4-3-2-3-3.8q0 0 0-0.1c0 0 0-6.9 0-6.9zm-4 7q0 0 0 0v-7q0 0 0 0c0-2.8-2.2-5-5-5-2.8 0-5 2.2-5 5q0 0 0 0v7c0 4.1-3.1 7.4-7 7.9v-2c2.8-0.5 4.9-2.9 5-5.8q0 0 0-0.1v-7c0-3.9 3.2-7 7-7 3.9 0 7 3.1 7 7v7q0 0.1 0 0.1c0.1 2.9 2.2 5.3 5 5.8v2c-3.9-0.5-7-3.8-7-7.9z"/>
</svg>