<svg version="1.2" xmlns="http://www.w3.org/2000/svg" viewBox="0 0 512 512" width="77" height="77">
	<title>whitening_14466549</title>
	<style>
		.s0 { fill: #307bc4 } 
	</style>
	<path class="s0" d="m460.4 119q-0.7 0-1.5 0c-28-0.5-60.5-26.9-63.3-65.2-0.3-3.2-2.9-5.6-6-5.6-3.2 0-5.8 2.4-6 5.6-1.1 15.1-6.9 28.3-15.1 38.9-9.1-3-18.5-4.5-28.1-4.7q-0.1 0-0.2 0c-17.3 0.3-34.1 3.6-50.1 10-26.8 10.7-52.9 10.7-79.7 0-16-6.4-32.8-9.8-50.1-10q-0.1 0-0.2 0c-25.7 0.5-49.8 10.9-67.9 29.3-18.1 18.5-28.1 42.8-28.1 68.6v1.8c0 30.8 12.1 60 33.4 80.3 1.6 13.5 2.8 28.1 4.1 43.6 1.6 20.5 3.4 41.7 6.4 62.7-9.6 13.3-24.4 21.4-37.8 21.6q-0.6 0-1.2 0c-3.3 0.1-5.9 2.7-5.9 6 0 3.3 2.6 6 5.9 6q0.6 0 1.2 0c21.3 0.4 45.9 20.5 48.1 49.7 0.2 3.1 2.8 5.5 6 5.5 3.1 0 5.7-2.4 5.9-5.5q0.2-1.8 0.4-3.5c7.9 15.3 17.5 27.6 29.3 37.1 6 5 13.3 6.8 21 5.3 7.6-1.5 13.7-5.9 17.4-12.8 10.9-19.8 17.2-42.7 18.4-66.2 1-19.9 4.7-36.7 12.1-54.7 3.6-8.8 11.8-14.4 21.4-14.4 9.6 0 17.8 5.6 21.5 14.4 7.4 18 11.1 34.9 12.1 54.7 1.1 23.5 7.5 46.4 18.4 66.2 3.7 6.9 9.7 11.3 17.4 12.8q2.6 0.5 5.2 0.5c5.7 0 11.1-1.9 15.8-5.8 46.8-38.1 52.9-113.3 58.3-179.6 1.2-15.5 2.4-30.1 4.1-43.6 21.2-20.3 33.4-49.5 33.4-80.3v-1.8c0-15.1-3.5-30-10.2-43.4 10.2-7.2 21.8-11.3 32.7-11.5q0.8 0 1.5 0c3.3-0.1 6-2.7 6-6 0-3.3-2.7-6-6-6zm-36 66.9v1.8c0 28.3-11.4 54.9-31.1 73-1.1 1-1.7 2.3-1.9 3.7-1.9 14.2-3.1 29.8-4.5 46.2-5.1 63.9-11 136.4-53.9 171.3-3.2 2.7-7 3.6-11.1 2.8-4.1-0.8-7.2-3.1-9.2-6.7-10-18.3-15.8-39.4-16.9-61.1-1.1-21.3-5.1-39.4-13-58.6-5.5-13.5-18-21.8-32.6-21.8-14.5 0-27 8.3-32.5 21.8-7.9 19.3-11.9 37.3-13 58.6-1.1 21.7-6.9 42.8-16.9 61.1-2 3.7-5.1 5.9-9.2 6.7-4.2 0.8-7.9-0.1-11.1-2.8-13.2-10.7-23.5-25.4-31.5-44.9 8.9-17.6 26.6-28.8 42.3-29.1q0.6 0 1.3 0c3.3 0 5.9-2.7 5.9-6 0-3.3-2.6-5.9-5.9-6q-0.7 0-1.3 0c-21.2-0.3-45.9-20.5-48.1-49.6-0.2-3.2-2.8-5.6-5.9-5.6-3.2 0-5.8 2.4-6 5.6q-0.3 3.3-0.9 6.5c-1.6-14.1-2.7-28.3-3.9-42.2-1.3-16.4-2.5-31.9-4.4-46.2-0.2-1.4-0.8-2.7-1.9-3.7-19.7-18.1-31.1-44.7-31.1-73v-1.8c0-46.4 37.7-84.9 84.1-85.9 15.8 0.3 31.2 3.3 45.7 9.2 29.4 11.7 59.2 11.7 88.6 0 14.6-5.9 30-8.9 45.8-9.2 6.4 0.1 12.8 1 18.9 2.5-11.6 10.3-25.8 16.3-39 16.5q-0.7 0-1.5 0c-3.3 0.1-5.9 2.7-5.9 6 0 3.3 2.6 6 5.9 6q0.8 0 1.5 0c28 0.5 60.5 26.9 63.4 65.3 0.2 3.1 2.8 5.5 6 5.5 3.1 0 5.7-2.4 5.9-5.5 1.4-18.6 9.8-34.4 21.2-45.8 5 11.1 7.7 23.2 7.7 35.4zm-315.7 226.6c-4.6-4.3-9.8-7.9-15.1-10.6 5.3-2.7 10.5-6.2 15.1-10.5 6.6-6.1 11.9-13.3 15.6-21.2 3.6 7.9 8.9 15.1 15.5 21.2 4.7 4.3 9.8 7.8 15.2 10.5-5.4 2.7-10.5 6.3-15.2 10.6-6.6 6.1-11.9 13.3-15.5 21.2-3.7-7.9-9-15.1-15.6-21.2zm301.9-272.7c-9.3 8.5-16.4 18.8-21 30.1-4.7-11.3-11.8-21.6-21.1-30.1-6.8-6.3-14.4-11.3-22.2-14.8 7.8-3.5 15.4-8.5 22.2-14.8 9.3-8.5 16.4-18.8 21.1-30.1 4.6 11.3 11.7 21.6 21 30.1 6.8 6.3 14.4 11.3 22.3 14.8-7.9 3.5-15.5 8.5-22.3 14.8zm-338.4-65.4c0.2 3.1 2.8 5.6 5.9 5.6 3.2 0 5.8-2.4 6-5.6 1-12.9 12.1-20.7 20-20.9h0.6c3.3-0.1 5.9-2.7 5.9-6 0-3.3-2.6-6-5.9-6q-0.3 0-0.6 0c-7.8-0.2-19-8-20-20.9-0.2-3.2-2.8-5.6-6-5.6-3.1 0-5.7 2.4-5.9 5.6-1 12.9-12.2 20.7-20 20.9q-0.3 0-0.6 0c-3.3 0-5.9 2.7-5.9 6 0 3.3 2.6 5.9 5.9 6h0.6c7.8 0.2 19 8 20 20.9zm5.9-35.8c2.4 3.6 5.4 6.5 8.7 8.9-3.3 2.3-6.3 5.3-8.7 8.8-2.4-3.5-5.3-6.5-8.6-8.8 3.3-2.4 6.2-5.3 8.6-8.9zm380.6 352.4q-0.3 0-0.6 0c-7.9-0.2-19-8-20-20.9-0.2-3.2-2.8-5.6-6-5.6-3.1 0-5.7 2.4-6 5.6-0.9 12.9-12.1 20.7-19.9 20.9q-0.3 0-0.6 0c-3.3 0-6 2.7-6 6 0 3.3 2.7 5.9 6 6h0.6c7.8 0.2 19 8 19.9 20.9 0.3 3.2 2.9 5.6 6 5.6 3.2 0 5.8-2.4 6-5.6 1-12.9 12.1-20.7 20-20.9h0.6c3.3-0.1 5.9-2.7 5.9-6 0-3.3-2.6-6-5.9-6zm-26.6 14.8c-2.4-3.5-5.3-6.5-8.6-8.8 3.3-2.4 6.2-5.3 8.6-8.9 2.4 3.5 5.4 6.5 8.7 8.9-3.3 2.3-6.3 5.3-8.7 8.8z"/>
</svg>